<svg width="32" height="32" viewBox="0 0 32 32" fill="none" xmlns="http://www.w3.org/2000/svg">
<path d="M15.9681 20.6325L15.9441 20.6097C16.6198 20.678 17.3022 20.5948 17.9419 20.366C18.5816 20.1373 19.1627 19.7687 19.6431 19.2869C20.1235 18.8052 20.4912 18.2223 20.7196 17.5805C20.948 16.9387 21.0315 16.2539 20.9639 15.5757L20.9879 15.5985C20.9208 14.8007 21.028 13.9977 21.302 13.2458C21.576 12.4938 22.0102 11.8109 22.5744 11.2447C23.1385 10.6785 23.819 10.2427 24.5683 9.9677C25.3176 9.6927 26.1177 9.5851 26.9127 9.6525L26.8887 9.6297C27.8397 9.7193 28.7952 9.5123 29.6247 9.037C30.4542 8.56163 31.1174 7.84104 31.5239 6.97349C31.9303 6.10595 32.0602 5.1337 31.8959 4.18934C31.7315 3.24498 31.2808 2.37451 30.6054 1.69663C29.9299 1.01876 29.0626 0.566501 28.1216 0.401531C27.1806 0.236571 26.2118 0.366931 25.3474 0.774841C24.4829 1.18275 23.7649 1.84835 23.2913 2.68085C22.8176 3.51335 22.6114 4.47222 22.7007 5.42668L22.678 5.40261C22.7453 6.20051 22.6383 7.00355 22.3643 7.75563C22.0904 8.50772 21.6561 9.1907 21.0919 9.7569C20.5278 10.3232 19.8472 10.759 19.0978 11.0339C18.3484 11.3088 17.5482 11.4162 16.7532 11.3486L16.7759 11.3727C16.1002 11.3044 15.4178 11.3876 14.7781 11.6164C14.1384 11.8451 13.5573 12.2137 13.0769 12.6955C12.5966 13.1772 12.2288 13.7601 12.0004 14.4019C11.772 15.0438 11.6885 15.7285 11.7561 16.4067L11.7334 16.3839C11.8003 17.1817 11.6929 17.9845 11.4188 18.7364C11.1447 19.4883 10.7105 20.1711 10.1464 20.7372C9.5823 21.3034 8.90192 21.7392 8.15273 22.0142C7.40353 22.2893 6.60356 22.3971 5.80861 22.3299L5.83133 22.3527C4.88028 22.2631 3.92484 22.4701 3.09531 22.9454C2.26578 23.4208 1.60256 24.1414 1.19611 25.0089C0.789659 25.8765 0.659759 26.8487 0.824139 27.7931C0.988509 28.7374 1.43916 29.6079 2.11461 30.2858C2.79006 30.9637 3.65743 31.4159 4.59841 31.5809C5.53939 31.7458 6.50818 31.6155 7.37262 31.2076C8.23706 30.7997 8.95508 30.1341 9.4287 29.3016C9.9024 28.4691 10.1086 27.5102 10.0193 26.5557L10.0433 26.5785C9.9762 25.7807 10.0834 24.9777 10.3574 24.2258C10.6314 23.4738 11.0657 22.7909 11.6298 22.2247C12.194 21.6585 12.8744 21.2227 13.6237 20.9477C14.373 20.6727 15.1731 20.5652 15.9681 20.6325Z" fill="#6E6EFF"/>
<path d="M13.2796 1.96313C12.8013 2.44613 12.4349 3.02903 12.2067 3.67033C11.9785 4.31163 11.8941 4.99553 11.9593 5.67343L11.9366 5.65063C12.0037 6.44843 11.8965 7.25133 11.6225 8.00333C11.3485 8.75533 10.9143 9.43823 10.3501 10.0044C9.78603 10.5706 9.10553 11.0064 8.35623 11.2814C7.60693 11.5564 6.80683 11.6639 6.01183 11.5966L6.03453 11.6194C5.08363 11.5306 4.12843 11.7382 3.29943 12.2141C2.47033 12.69 1.80773 13.411 1.40193 14.2786C0.996027 15.1463 0.866727 16.1185 1.03163 17.0626C1.19653 18.0067 1.64753 18.8768 2.32313 19.5543C2.99883 20.2317 3.86623 20.6836 4.80713 20.8482C5.74803 21.0128 6.71663 20.8821 7.58083 20.4741C8.44503 20.066 9.16273 19.4003 9.63623 18.5679C10.1096 17.7354 10.3157 16.7767 10.2263 15.8224L10.2503 15.8452C10.1832 15.0473 10.2904 14.2444 10.5644 13.4924C10.8384 12.7404 11.2727 12.0575 11.8368 11.4914C12.401 10.9252 13.0814 10.4894 13.8307 10.2144C14.58 9.93943 15.3801 9.83183 16.1751 9.89923L16.1511 9.87643C16.9279 9.94653 17.7098 9.81873 18.4243 9.50473C19.1388 9.19083 19.7628 8.70103 20.2384 8.08063C20.714 7.46033 21.0259 6.72953 21.1452 5.95593C21.2645 5.18243 21.1872 4.39113 20.9206 3.65553C20.6541 2.91993 20.2068 2.26373 19.6202 1.74783C19.0336 1.23193 18.3268 0.872926 17.5652 0.704126C16.8036 0.535326 16.0118 0.562226 15.2633 0.782326C14.5148 1.00243 13.8338 1.40853 13.2834 1.96313H13.2796Z" fill="#6E6EFF"/>
<path d="M8.50861 19.0902C8.98702 18.6073 9.35329 18.0244 9.5813 17.383C9.8093 16.7416 9.89341 16.0577 9.82762 15.3799L9.8516 15.4027C9.78444 14.6046 9.89168 13.8015 10.1658 13.0493C10.44 12.2971 10.8745 11.6141 11.4389 11.0478C12.0033 10.4816 12.6841 10.0459 13.4337 9.77107C14.1834 9.49624 14.9837 9.38896 15.7789 9.4567L15.7549 9.4339C16.7056 9.52328 17.6607 9.31619 18.4898 8.84087C19.319 8.36554 19.9819 7.64512 20.3881 6.77785C20.7943 5.91058 20.924 4.93868 20.7597 3.99467C20.5953 3.05067 20.1448 2.18053 19.4696 1.5029C18.7944 0.825279 17.9274 0.373159 16.9867 0.2082C16.0461 0.0432423 15.0777 0.173476 14.2135 0.581139C13.3493 0.988803 12.6315 1.65405 12.1578 2.48617C11.6842 3.31828 11.4779 4.27676 11.5669 5.23089L11.5442 5.20809C11.6113 6.00594 11.5041 6.80888 11.2301 7.56086C10.9561 8.31284 10.5219 8.99575 9.95771 9.56192C9.39356 10.1281 8.71309 10.5639 7.96379 10.8389C7.2145 11.1139 6.41443 11.2215 5.61943 11.1541L5.64215 11.1769C4.86535 11.107 4.08354 11.235 3.36916 11.5491C2.65477 11.8631 2.03093 12.353 1.55545 12.9735C1.07996 13.5939 0.768214 14.3247 0.649093 15.0982C0.529972 15.8718 0.607331 16.663 0.874003 17.3985C1.14067 18.134 1.58803 18.7901 2.17462 19.3059C2.7612 19.8218 3.46803 20.1807 4.22962 20.3494C4.9912 20.5181 5.78289 20.4911 6.53133 20.271C7.27977 20.0509 7.96074 19.6447 8.51114 19.0902H8.50861Z" fill="#6E6EFF"/>
</svg>
