<svg width="40" height="40" viewBox="0 0 40 40" fill="none" xmlns="http://www.w3.org/2000/svg">
<circle cx="20" cy="20" r="19.5" fill="currentColor" stroke="white"/>
<path d="M20.634 13.436C21.954 13.436 23.112 13.694 24.108 14.21C25.116 14.726 25.89 15.464 26.43 16.424C26.982 17.372 27.258 18.476 27.258 19.736C27.258 20.996 26.982 22.1 26.43 23.048C25.89 23.984 25.116 24.71 24.108 25.226C23.112 25.742 21.954 26 20.634 26H16.242V13.436H20.634ZM20.544 23.858C21.864 23.858 22.884 23.498 23.604 22.778C24.324 22.058 24.684 21.044 24.684 19.736C24.684 18.428 24.324 17.408 23.604 16.676C22.884 15.932 21.864 15.56 20.544 15.56H18.762V23.858H20.544Z" fill="white"/>
</svg>
