<!-- <svg width="32" height="32" viewBox="0 0 32 32" fill="none" xmlns="http://www.w3.org/2000/svg">
<path fill-rule="evenodd" clip-rule="evenodd" d="M0 16C0 7.16344 7.16344 0 16 0C24.8366 0 32 7.16344 32 16C32 24.8366 24.8366 32 16 32C7.16344 32 0 24.8366 0 16ZM22.1 11.5C22.8 11.4 23.4 11.3 24 11C23.6 11.7 23 12.3 22.3 12.7C22.5 17.4 19.1 22.5 13 22.5C11.2 22.5 9.5 21.9 8 21C9.7 21.2 11.5 20.7 12.7 19.8C11.2 19.8 10 18.8 9.6 17.5C10.1 17.6 10.6 17.5 11.1 17.4C9.6 17 8.5 15.6 8.5 14.1C9 14.3 9.5 14.5 10 14.5C8.6 13.5 8.1 11.6 9 10.1C10.7 12.1 13.1 13.4 15.8 13.5C15.3 11.5 16.9 9.5 19 9.5C19.9 9.5 20.8 9.9 21.4 10.5C22.2 10.3 22.9 10.1 23.5 9.7C23.3 10.5 22.8 11.1 22.1 11.5Z" fill="#B5B5FF"/>
</svg> -->
<svg width="26" height="24" viewBox="0 0 26 24" fill="none" xmlns="http://www.w3.org/2000/svg">
<path d="M26 2.84123C25.0331 3.32308 24.0029 3.64246 22.9287 3.79754C24.0338 3.048 24.8771 1.87015 25.2736 0.450462C24.2434 1.14831 23.1059 1.64123 21.8936 1.91631C20.9154 0.732923 19.5211 0 18.0001 0C15.0491 0 12.6734 2.72123 12.6734 6.05723C12.6734 6.53723 12.7091 6.99877 12.7969 7.43815C8.3655 7.19262 4.44437 4.77969 1.81025 1.104C1.35037 2.01046 1.08062 3.048 1.08062 4.16492C1.08062 6.26215 2.03125 8.12123 3.44825 9.19754C2.59187 9.17908 1.75175 8.89662 1.04 8.45169C1.04 8.47015 1.04 8.49415 1.04 8.51815C1.04 11.4609 2.88763 13.9052 5.3105 14.4683C4.87663 14.6031 4.40375 14.6677 3.913 14.6677C3.57175 14.6677 3.22725 14.6455 2.90387 14.5643C3.5945 16.9625 5.55425 18.7255 7.8845 18.7828C6.071 20.3945 3.76837 21.3655 1.27562 21.3655C0.8385 21.3655 0.41925 21.3434 0 21.2825C2.36112 23.0123 5.15937 24 8.177 24C17.9855 24 23.348 14.7692 23.348 6.768C23.348 6.50031 23.3399 6.24185 23.3285 5.98523C24.3864 5.13231 25.2752 4.06708 26 2.84123Z" fill="currentColor"/>
</svg>
